<?xml version="1.0" encoding="UTF-8" standalone="no"?>
<svg
   version="1.1"
   width="218.95406pt"
   height="280.05615pt"
   id="svg22"
   viewBox="0 0 218.95405 280.05615"
   xmlns="http://www.w3.org/2000/svg"
   xmlns:svg="http://www.w3.org/2000/svg">
  <defs
     id="defs26" />
  <path
     d="m 45.792269,187.23884 h -0.9785 c -1.3045,0 -2.3652,0.0683 -3.1856,0.2012 v 18.2988 c 4.8439,0.379 8.0215,-0.2109 9.5315,-1.7677 1.5078,-1.5565 2.2635,-4.0291 2.2635,-7.416 0,-6.211 -2.545,-9.3163 -7.6309,-9.3163 z m 32.874,-6.0001 v 0 c -0.8396,0 -1.658,0.256 -2.4511,0.7676 -0.7949,0.5117 -1.4454,1.2422 -1.9491,2.1875 -0.504,0.9454 -0.7558,2.0058 -0.7558,3.1799 v 11.2655 c 0,2.7246 0.3963,4.7344 1.1914,6.0312 0.7929,1.2969 2.0214,1.9435 3.6854,1.9435 1.7189,0 3.0313,-1.0684 3.9376,-3.2091 0.9062,-2.1388 1.3592,-5.1934 1.3592,-9.1622 0,-4.4121 -0.4062,-7.6816 -1.2186,-9.8104 -0.8127,-2.1288 -2.0801,-3.1935 -3.799,-3.1935 z m 139.423201,-46.6543 v 0 c -9.1027,-4.9964 -14.6943,-12.6712 -15.5722,-24.3678 0.3291,-16.0239 7.8398,-22.2324 14.9111,-25.768 0,-6.641 0,-55.8629 -0.0547,-63.902 v -0.5468 c 0,-0.4266 0,-0.6117 0,-0.6117 l -0.0547,0.0629 c -0.5468,-11.9394998 -9.9805,-19.86119976 -32.8955,-19.43459976 -27.4677,1.89009996 -46.0539,6.33399996 -74.0166,20.89759976 38.4903,-13.2828998 72.2656,-15.2330998 84.5439,-7.4328 3.7831,2.7411 5.8663,7.1275 6.2518,12.6703 h -24.9999 c -2.6903,0 -4.8829,1.156 -4.8829,2.6187 v 7.3732 h -15.5721 v -7.3732 c 0,-1.4627 -2.1924,-2.6187 -4.8243,-2.6187 h -25.6561 c -2.6875,0 -4.8799,1.156 -4.8799,2.6187 v 7.3732 h -15.5168 v -7.3732 c 0,-1.4627 -2.1949,-2.6187 -4.881801,-2.6187 h -25.5464 c -2.6856,0 -4.879,1.156 -4.879,2.6187 v 17.1802 l 10.8022,15.107 -0.7696,57.3834 c -15.4607,3.2304 -30.8114,3.3534 -44.4622,-1.3411 -35.74800032,-15.8357 7.6748,-58.7211 29.2762,-75.7811 -59.4873003,32.5913 -99.015,97.4684 -15.9545,91.8054 8.2241,-0.8547 15.8442,-2.0101 22.9711,-3.4733 0.11,-0.0627 0.2197,-0.0627 0.3302,-0.1222 7.4004,-1.7053 14.747,-3.6527 21.9291,-5.9697 2.5773,-2.0722 4.4425,-5.3003 6.194,-7.7993 -2.6872,-2.2496 -5.5899,-7.3706 0.332001,-15.899 5.2075,-7.3074 5.7577,-10.0516 8.278,-19.6165 1.8663,3.8398 2.961,13.6499 3.0705,17.7885 0.7664,11.2705 -4.2755,18.3387 -9.3745,18.3387 -1.207,1.8272 -2.251301,3.7145 -3.622401,5.6021 4.221101,-1.4604 8.392501,-2.9831 12.447801,-4.6913 l 2.086,-5.2379 c -0.6043,-0.4841 -0.9334,-1.2781 -0.8243,-2.1917 0.22,-1.4003 1.3711,-2.5591 2.6328,-2.4996 1.2609,0 2.1368,1.1611 1.9738,2.5591 -0.2197,1.3408 -1.3156,2.4395 -2.5234,2.4996 l -1.588,4.2015 c 2.3009,-0.9737 4.6046,-2.0066 6.8536,-3.0464 1.37,-2.0066 2.7403,-4.2636 3.9481,-6.5755 -2.5781,-1.7677 -4.9901,-5.5451 -0.2197,-13.1601 4.4952,-7.2502 4.7668,-10.359 6.6328,-19.4967 1.9199,3.4733 3.5079,12.6139 3.8945,16.4511 0.2716,9.8669 -3.454,14.9845 -8.2247,16.3877 -0.8787,1.6429 -1.8105,3.291 -2.9072,4.9306 4.3869,-2.1291 8.6074,-4.3835 12.6652,-6.7607 l 1.9199,-5.0556 c -0.6035,-0.3642 -0.9893,-1.0961 -0.8779,-2.0097 0.2177,-1.2183 1.2597,-2.192 2.3573,-2.192 1.0959,0 1.8632,1.0337 1.6974,2.2521 -0.1633,1.0981 -0.9845,2.012 -1.9171,2.1917 l -1.4247,3.7803 c 2.249,-1.3408 4.4952,-2.7439 6.6328,-4.1448 1.7538,-2.5563 3.3993,-5.5999 4.7704,-8.7112 -2.3564,-1.7651 -4.4952,-6.3963 -0.0547,-14.3753 3.8917,-7.3131 4.0031,-9.3798 4.5468,-18.3356 2.088,3.1654 4.1672,11.9389 4.7727,15.5914 1.2625,9.9947 -2.1407,15.8417 -7.2363,17.4248 -0.7129,1.8896 -1.5891,3.7744 -2.5784,5.4822 4.2208,-2.9831 8.2786,-6.1517 12.1184,-9.4994 l 1.3711,-5.6679 c -0.6035,-0.2446 -0.9904,-0.976 -0.879,-1.7674 0.1661,-0.9768 0.9884,-1.7654 1.9199,-1.7654 0.9337,0 1.5372,0.8518 1.37,1.8283 -0.1103,0.7915 -0.5995,1.4003 -1.207,1.7045 l -0.7665,4.0802 c 1.6455,-1.5236 3.2882,-3.0464 4.8818,-4.6296 0.9306,-2.2512 1.6427,-4.6879 2.1915,-7.1903 -2.6328,-0.6063 -4.0031,-3.5297 -2.249,-10.9624 2.0293,-6.4559 1.8113,-7.92 1.3711,-15.1076 2.249,2.0699 4.8818,5.8473 6.3612,11.0852 2.1376,7.1283 0.1094,13.2196 -3.9492,14.8657 -0.163,1.4003 -0.5488,2.9257 -1.044,4.5686 3.1827,-3.3505 6.2521,-6.8836 9.0479,-10.5984 l 0.8232,-5.8496 c -0.6571,-0.2424 -1.0409,-0.9116 -0.9315,-1.7651 0.163,-0.9766 0.9862,-1.7652 1.9168,-1.7652 0.879,0 1.5364,0.8516 1.3703,1.8253 -0.1086,0.7313 -0.6035,1.4003 -1.2011,1.6455 l -0.553,3.9594 c 1.6994,-2.3145 3.3457,-4.6913 4.8821,-7.1308 -1.425,-2.0098 -2.8508,-5.298 -0.1114,-10.171 3.6737,-5.4831 3.837,-7.3106 5.5389,-14.3136 1.5891,3.4078 2.9055,9.7472 3.1252,12.7304 0.1094,6.7609 -2.6357,12.4881 -7.5654,12.4254 -1.2648,2.0129 -2.5237,4.0227 -3.8917,5.9729 l 2.0801,-0.2424 c 0.2208,-0.8563 0.9873,-1.4629 1.8116,-1.4629 0.9326,0 1.537,0.8512 1.3711,1.8873 -0.1125,0.9737 -0.9884,1.7677 -1.8663,1.7677 -0.6035,0 -1.0956,-0.3674 -1.3164,-0.9142 l -3.0158,0.3617 c -2.5183,3.5983 -5.2625,7.069 -8.1102,10.3589 1.3652,0.1826 2.7422,0.2446 4.1074,0.1826 0.4394,-2.619 1.4845,-5.1186 7.8976,-6.3369 5.2078,-0.182 7.0166,-1.4003 12.7157,-4.4461 -1.6963,4.509 -5.205,10.0516 -7.9453,12.0614 -5.7041,4.2046 -10.6934,3.2904 -12.668,0.0626 -1.7521,0.3011 -3.7811,0.4267 -5.7013,0.3011 -1.9707,2.1948 -4.0028,4.3302 -6.1404,6.4 l 3.1269,0.3637 c 0.3271,-0.6684 0.9853,-1.2206 1.6982,-1.1554 0.9315,0 1.5333,0.7917 1.4278,1.825 -0.1661,1.036 -0.9884,1.8275 -1.923,1.8275 -0.6562,0 -1.1483,-0.4867 -1.3133,-1.0962 l -4.2766,-0.5462 c -3.8906,3.7771 -8.0028,7.2445 -12.284,10.5979 1.6484,0.4269 3.1825,0.7316 5.0488,1.0363 1.37,-3.1686 3.2324,-5.9102 11.7862,-3.5929 6.3065,2.8015 8.9365,2.3746 16.7227,2.0069 -2.8528,3.8404 -9.5372,7.7998 -13.3781,8.5286 -8.5555,1.5236 -12.9932,-1.0956 -14.9139,-4.9306 -2.7414,-0.307 -5.1506,-0.7339 -7.4543,-1.4031 -2.5809,1.8876 -5.1542,3.7154 -7.8398,5.4227 l 2.958,0.6094 c 0.4405,-0.794 1.2081,-1.3408 2.0285,-1.2807 1.0964,0 1.8671,1.0361 1.7019,2.2516 -0.1678,1.2214 -1.207,2.1946 -2.3593,2.1946 -0.9842,0 -1.6971,-0.7915 -1.6971,-1.8247 l -4.333,-0.8569 c -4.1661,2.6816 -8.4444,5.1812 -12.8311,7.4956 1.2654,0.9737 2.5215,1.8275 3.8398,2.5566 1.7011,-3.166 4.1103,-5.7251 12.5,-3.2885 6.4698,3.106 9.2656,2.6193 17.5439,2.2544 -3.7823,4.2648 -9.3739,7.433 -15.0225,8.6488 -8.6601,1.8301 -14.0332,-0.974 -15.5126,-5.6049 -2.0313,-0.7889 -4.0059,-1.9477 -5.8691,-3.2885 -2.3029,1.2212 -4.7149,2.3769 -7.1252,3.473 l 3.2335,1.1582 c 0.5468,-0.6088 1.2597,-1.036 2.0253,-1.036 1.2629,0.0601 2.1388,1.1562 1.9747,2.6192 -0.2177,1.4003 -1.4247,2.4965 -2.6836,2.4965 -1.2617,-0.0601 -2.1396,-1.2184 -1.9179,-2.6187 0,0 0,-0.0601 0,-0.1202 l -4.4972,-1.5854 c -4.7704,2.1322 -9.6491,4.0825 -14.5851,5.9097 1.588,1.2189 3.236,2.3116 4.8268,3.2281 2.6842,-3.1085 6.2496,-6.092 14.6365,0.4243 5.9207,5.9721 8.8826,6.5815 17.4384,9.6273 -4.0031,2.0084 -13.4912,3.0439 -17.4384,3.1077 -10.965,0.6066 -15.6805,-6.0934 -15.4061,-11.2091 -2.4151,-1.036 -4.879,-2.4395 -7.184701,-4.0796 -6.0854,2.1294 -12.2244,4.0195 -18.4745,5.6625 v 0.0626 c -1.6435,0.4266 -3.3437,0.851 -5.0992,1.2152 -1.0415,0.2447 -2.0829,0.4899 -3.1244,0.7319 -0.0547,0 -0.0547,0 -0.0547,0 -20.3408,4.3268 -43.5866,6.5832 -70.83550032,6.0333 -0.2174,20.8312 -1.69969998,40.14 5.75600002,59.9386 7.9492003,21.0784 26.3172003,34.4815 43.8611003,44.2267 21.1626,9.9913 42.0519,19.3144 59.542301,36.3095 19.1358,-16.5702 37.1162,-25.4639 59.5428,-36.3095 17.8186,-9.8671 35.964,-22.7792 43.8585,-44.2267 7.9504,-20.8933 6.2521,-42.8845 5.2657,-64.9355 z m -170.886901,75.0294 v 0 h -17.2775 v -2.2502 c 1.2892,-0.3767 2.1096,-0.9374 2.465,-1.6835 0.3555,-0.7441 0.5332,-2.2402 0.5332,-4.4864 v -28.7518 c 0,-2.2889 -0.1701,-3.791 -0.506,-4.5019 -0.3359,-0.711 -1.1678,-1.2793 -2.4922,-1.7011 v -2.2502 h 29.5781 v 11.2502 h -3.8749 c -0.8419,-3.1564 -1.66,-5.1758 -2.4551,-6.0548 -0.7949,-0.879 -2.033,-1.3204 -3.7168,-1.3204 h -7.8282 v 15.5588 c 2.543,-0.2891 4.7013,-0.4337 6.4786,-0.4337 4.6916,0 8.2012,1.0684 10.5293,3.2032 2.3281,2.1367 3.4923,5.5272 3.4923,10.1758 0,8.8319 -4.9765,13.246 -14.9258,13.246 z m 43.5067,-7.2814 v 0 c -0.9805,2.59 -2.4395,4.5335 -4.3807,5.8323 -1.9414,1.3005 -4.3282,1.9491 -7.164,1.9491 -1.9219,0 -3.8069,-0.2911 -5.6543,-0.8691 v 6.3145 c 0,1.6699 0.074,2.8493 0.2245,3.541 0.1483,0.6894 0.4159,1.2342 0.7988,1.6364 0.3827,0.4006 1.0585,0.7345 2.0314,1.0021 v 2.2501 h -13.9337 v -2.2501 c 0.879,-0.3124 1.4901,-0.6562 1.836,-1.0332 0.3438,-0.3807 0.5918,-0.9083 0.7421,-1.5857 0.1485,-0.6818 0.2245,-1.8655 0.2245,-3.557 v -29.2127 c 0,-1.578 -0.0156,-2.7031 -0.0428,-3.3712 -0.0275,-0.6679 -0.0939,-1.2342 -0.1953,-1.7031 -0.1035,-0.4668 -0.2481,-0.8495 -0.4357,-1.1503 -0.1874,-0.3007 -0.4629,-0.5627 -0.826,-0.7852 -0.3634,-0.2225 -0.9006,-0.4218 -1.6096,-0.6015 v -2.2501 l 7.7483,-0.25 h 3.4375 l -0.4201,4.8653 0.336,0.1015 c 1.6035,-1.8496 3.1016,-3.1816 4.4923,-3.996 1.3904,-0.8127 2.8222,-1.2209 4.2968,-1.2209 3.3202,0 5.8124,1.3947 7.4726,4.1837 1.6603,2.7893 2.4923,6.9591 2.4923,12.5118 0,3.8438 -0.4904,7.0606 -1.4709,9.6483 z m 29.997901,-25.7187 v 0 h -3.875 c -1.0156,-4 -1.9179,-6.459 -2.711,-7.3749 -0.7929,-0.9159 -1.916,-1.3751 -3.373,-1.3751 h -5.3356 v 33.3028 c 0,2.3242 0.1953,3.8654 0.5879,4.6231 0.3926,0.7596 1.3257,1.2852 2.8023,1.574 v 2.2502 H 93.709469 v -2.2502 c 1.2889,-0.3767 2.1092,-0.9374 2.4647,-1.6835 0.3554,-0.7441 0.5332,-2.2498 0.5332,-4.5195 v -28.7187 c 0,-2.2889 -0.1698,-3.791 -0.5057,-4.5019 -0.3362,-0.711 -1.1682,-1.2793 -2.4922,-1.7011 v -2.2502 h 26.997701 z m 36.4447,-0.8748 v 0 h -3.8749 c -0.3535,-1.5256 -0.633,-2.6467 -0.836,-3.3653 -0.2052,-0.7169 -0.4337,-1.3283 -0.6837,-1.834 -0.25,-0.504 -0.5156,-0.9258 -0.7928,-1.2617 -0.2792,-0.3359 -0.5763,-0.6055 -0.8926,-0.8087 -0.3164,-0.201 -0.713,-0.3515 -1.1855,-0.453 -0.4728,-0.1018 -1.0919,-0.1525 -1.8536,-0.1525 h -2.0058 v 33.3184 c 0,1.1798 0.0272,2.0761 0.0839,2.6895 0.0567,0.6132 0.1602,1.1092 0.3087,1.4882 0.1483,0.379 0.332,0.6837 0.5468,0.9182 0.2149,0.2341 0.5137,0.447 0.8966,0.6346 0.3827,0.1894 0.9003,0.3399 1.5546,0.451 v 2.2502 h -15.4863 v -2.2502 c 0.7852,-0.1562 1.4063,-0.3611 1.8632,-0.6171 0.4573,-0.2557 0.7988,-0.6171 1.0236,-1.0859 0.2225,-0.4686 0.3631,-1.0644 0.4198,-1.789 0.0547,-0.7225 0.0839,-1.6191 0.0839,-2.6895 v -33.3184 h -2.2498 c -1.1115,0 -1.963,0.1582 -2.5569,0.4708 -0.5935,0.3144 -1.1072,0.8085 -1.5409,1.4806 -0.4354,0.6738 -0.8104,1.578 -1.1251,2.7107 -0.3163,1.1328 -0.574,2.2051 -0.7772,3.2131 h -3.875 v -11.7502 h 32.955 z m 36.8584,-9.5 v 0 c -1.0488,0.2676 -1.9803,1.0292 -2.795,2.285 -0.8164,1.2557 -1.7577,3.0937 -2.8241,5.5156 l -9.3535,23.5704 c -1.7031,4.2735 -3.3866,7.4687 -5.0508,9.582 -1.6639,2.1152 -3.8143,3.1719 -6.4511,3.1719 -1.4785,0 -3.2363,-0.3262 -5.2753,-0.9745 v -9.4006 h 4.125 c 0.0936,2.918 0.9785,4.375 2.6581,4.375 2.0137,0 3.8514,-2.0508 5.5117,-6.1523 l -9.8105,-25.2383 c -0.9941,-2.5545 -1.7852,-4.3007 -2.3751,-5.2344 -0.5899,-0.9335 -1.336,-1.4335 -2.2343,-1.4998 v -2.2502 h 14.9315 v 2.2502 c -1.4374,0.2225 -2.156,1.0664 -2.156,2.531 0,0.8439 0.498,2.5997 1.4958,5.2637 l 4.8283,13.2599 4.627,-12.9592 c 0.826,-2.3085 1.2401,-4.1306 1.2401,-5.4646 0,-1.6642 -0.7285,-2.5412 -2.1855,-2.6308 v -2.2502 h 11.0937 z"
     style="fill:#006bb4;fill-rule:evenodd"
     id="path20" />
</svg>
